# xmcd
#
# Track frame offsets:
#	150
#	12786
#	24661
#	37660
#	48304
#	64064
#	76080
#	91542
#	103065
#	116768
#	129928
#	144153
#	155991
#
# Disc length: 2221 seconds
#
# Revision: 1
# Processed by: cddbd v1.5.2PL0 Copyright (c) Steve Scherf et al.
# Submitted via: audiograbber 1.83.01
#
DISCID=9508ab0d
DTITLE=Patsy Cline - Patsy Cline Presents Lonesome Spurs
DYEAR=2013
DGENRE=Country
TTITLE0=Honky Tonk Merry Go Round
TTITLE1=Walkin' After Midnight
TTITLE2=Ride Straddle Saloon
TTITLE3=I Love You, Honey
TTITLE4=Lovesick
TTITLE5=Today, Tomorrow and Forever
TTITLE6=Pieces I'm Missing
TTITLE7=Hungry For Love
TTITLE8=Rollin' In My Sweet Baby's Arms
TTITLE9=If I Could See The World (Through The Eyes Of A Child)
TTITLE10=Big Wheel
TTITLE11=In Care Of The Blues
TTITLE12=Dixieland Melody
EXTD=
EXTT0=
EXTT1=
EXTT2=
EXTT3=
EXTT4=
EXTT5=
EXTT6=
EXTT7=
EXTT8=
EXTT9=
EXTT10=
EXTT11=
EXTT12=
PLAYORDER=
